<?xml version="1.0" encoding="iso-8859-1"?>
<!-- Generator: Adobe Illustrator 19.0.0, SVG Export Plug-In . SVG Version: 6.00 Build 0)  -->
<svg version="1.1" id="Layer_1" xmlns="http://www.w3.org/2000/svg" xmlns:xlink="http://www.w3.org/1999/xlink" x="0px" y="0px"
	 viewBox="0 0 512 512" style="enable-background:new 0 0 512 512;" xml:space="preserve">
<g>
	<path style="fill:#D1D5D5;" d="M271.932,59.448c0,2.441-3.582,4.421-8,4.421h-15.865c-4.418,0-8-1.979-8-4.421V5.29
		c0-2.441,3.582-4.421,8-4.421h15.865c4.418,0,8,1.979,8,4.421V59.448z"/>
	<path style="opacity:0.2;fill:#2D404E;enable-background:new    ;" d="M240.067,5.29v54.158c0,2.232,2.997,4.073,6.888,4.373V0.917
		C243.064,1.216,240.067,3.057,240.067,5.29z"/>
	<path style="fill:#D1D5D5;" d="M271.932,493.869c0,4.418-3.582,8-8,8h-15.865c-4.418,0-8-3.582-8-8v-98c0-4.418,3.582-8,8-8h15.865
		c4.418,0,8,3.582,8,8V493.869z"/>
	<path style="fill:#D1D5D5;" d="M156.58,505.156c-1.218,4.424-3.833,5.681-8.798,5.975h-17.729c-4.26-1.173-6.726-5.71-5.508-10.134
		l27.02-98.129c1.219-4.424,5.66-7.06,9.919-5.887l15.296,4.212c4.26,1.173,6.727,5.71,5.508,10.135L156.58,505.156z"/>
	<path style="fill:#D1D5D5;" d="M355.42,505.156c1.218,4.424,3.833,5.681,8.798,5.975h17.729c4.26-1.173,6.726-5.71,5.508-10.134
		l-27.02-98.129c-1.219-4.424-5.66-7.06-9.919-5.887l-15.296,4.212c-4.26,1.173-6.727,5.71-5.508,10.135L355.42,505.156z"/>
	<path style="fill:#48B19B;" d="M512,385.869c0,14.912-12.088,27-27,27H27c-14.912,0-27-12.088-27-27v-331c0-14.912,12.088-27,27-27
		h458c14.912,0,27,12.088,27,27V385.869z"/>
	<g>
		<path style="fill:#253744;" d="M23.689,392.693c-1.119,0-2.029-0.924-2.029-2.058V50.102c0-1.134,0.91-2.058,2.029-2.058H488.31
			c1.119,0,2.029,0.924,2.029,2.058v340.533c0,1.134-0.91,2.058-2.029,2.058H23.689z"/>
		<path style="fill:#2D404E;" d="M32.948,383.518c-1.074,0-1.948-0.874-1.948-1.948V59.167c0-1.074,0.874-1.948,1.948-1.948h446.104
			c1.074,0,1.948,0.874,1.948,1.948V381.57c0,1.074-0.874,1.948-1.948,1.948H32.948z"/>
	</g>
	<g>
		<path style="fill:#D1D5D5;" d="M101.531,176.894c0.594-2.33,3.199-0.516,2.881-3.111c2.223,0.73,3.539,0.192,4.91,1.153
			c0.326-0.417-0.166-1.359,1.564-1.571c0.061,0.494,1.096,0.744,1.141,1.114c5.164-1.886,11.805,4.2,16.066,5.185
			c10.395,13.156-3.094,26.979-5.562,38.574c-5.107,3.387-4.678,10.986-9.922,14.264c0.062,5.639-9.025,13.403-10.463,20.103
			c2.377,0.964,11.287-4.144,13.396-7.411c1.438-0.553,2.098,0.746,1.896,1.146c7.355-0.397,7.129-3.258,12.486-1.529
			c6.467-3.552,13.914-4.213,19.508,1.501c-1.006-0.003-2.045,1.756-0.797,2.731c3.354-0.284-0.895,6.008-4.326,6.68
			c-3.199,0.518-6.652-2.071-7.787,0.953c-3.689-1.431-14.078,1.85-20.973,3.949c-8.719,2.572-16.645,9.567-25.541,8.648
			c-2.186-3.497-5.119-3.891-6.805-9.455c2.498-4.195,2.697-9.741,6.779-11.244c-0.57-0.558-1.211-3.742,1.289-2.793
			c0.033-0.757-0.615-0.93-0.598-1.809c4.041-3.883,4.352-10.57,9.488-13.709c1.803-10.887,11.916-15.387,13.027-26.816
			c2.104-1.262,3.576-3.574,3.207-4.533c0.82-0.477,1.625-1.078,2.6-1.322c-0.949-3.648,2.318-6.683-0.348-8.99
			c-0.047-0.371,1.1-1.266,1.455-1.435c-1.262-2.104-5.463-2.593-8.842-3.56c-0.965,2.377-2.891-0.021-4.408,1.922
			c-0.758-0.033-1.559-0.438-1.619-0.932c-3.51,1.057-9.279,4.148-10.496,8.562c-0.98,3.257-3.74,7.359-6.135,7.275
			c-0.756-0.032-1.377,1.048-1.254,1.033c-1.406-0.206-1.324-1.595-1.756-2.045c-1.633-2.058-4.965-3.658-4.494-6.978
			c2.885-4.116,2.383-7.192,6.836-8.741c0.988-0.121,0.049-1.639,0.205-2.41c1.994-0.119,6.631-1.188,6.795-4.973
			c1.236-0.152,0.953,1.641,2.08,1.627c0.225-3.289,2.041-0.752,2.988-2.248C100.328,176.29,100.343,176.414,101.531,176.894z"/>
		<path style="fill:#D1D5D5;" d="M190.148,209.957c0.727,5.934,1.547,5.457-1.91,10.021c9.584,9.615,18.299,15.197,27.775,24.954
			c-0.67,1.714-2.336,7.563-5.424,6.938c-8.957-1.412-19.4-20.084-28.447-21.234c-4.768,3.093-7.055,10.023-9.184,15.178
			c-2.115,5.277-3.711,13.754-8.396,15.457c0.604-0.199-3.383,0.039-2.225,0.272c-3.721-0.673-3.389-4.103-5.422-6.362
			c3.393-4.054-0.396-8.357,3.781-11.128c0.328-1.421-0.893-1.146-0.781-2.288c1.531-0.814,2.383-2.049,3.621-3.203
			c-0.184-0.48-1.156-0.236-1.791-0.284c3.812-4.733,3.385-12.333,8.953-16.027c-5.105-8.91-16.648-14.021-21.26-22.992
			c-2.1-0.746-4.055-3.394-2.287-5.366c11.221-2.629,13.627,4.73,16.012,8.83c4.98,3.781,9.402,8.133,14.615,11.76
			c0.312-1.543,1.275-3.92,1.139-5.033c8.27-1.137,0.525-12.109,7.557-13.095c-1.141-1.116,1.215-10.563,4.635-12.362
			c3.83,0.534,10.438,1.23,9.982,4.674C194.154,195.539,197.584,201.015,190.148,209.957z"/>
		<path style="fill:#D1D5D5;" d="M241.861,205.002c-4.619,0.188-4.434,0.669-8.529,1.044c-0.426-2.457-1.953-3.648-3.711-4.689
			c1.328-0.414-0.92-3.4-1.162-5.377c5.117-1.256,7.137-5.267,9.756-9.477c6.545-3.938,13.223-11.908,13.35-19.076
			c-4.684-5.449-13.564-0.095-18.895,0.432c-3.789,1.844-3.287,4.92-8.527,6.189c1.062,1.502,0.518,3.199,0.066,4.634
			c-5.389-0.971-10.143-2.897-10.496-9.882c4.676-3.834,8.836-5.725,12.768-9.468c6.424,1.221,12.15-3.245,16.213-2.864
			c1.652,0.175,4.572-0.56,6.24-0.262c7.443,1.348,17.053,7.07,10.564,19.66c-0.77,4.988-6.883,9.374-8.996,14.652
			c3.477-0.3,12.021-1.222,16.26,2.651c3.652,3.19,10.32,5.386,8.518,10.123c3.107,4.89,0.928,11.681,1.207,18.046
			c-0.619,0.076-1.113,0.137-1.607,0.197c-0.641,15.26-20.803,35.045-39.893,27.723c-1.779-5.305-12.996-4.684-11.551-14.396
			c2.703-0.457-0.783-2.287,1.029-3.891c2.061-2.636,0.26,1.099,3.584-0.438c-0.018,0.882,0.74,0.913,0.723,1.794
			c1.699-0.459,1.211-2.407,2.477-2.312c0.832,0.652,0.119,1.993,1.77,3.173c1.33-0.414,1.189-0.523,2.861-1.23
			c0.984,1.888,0.363,2.968-0.984,4.262c0.166,1.359,1.34,1.719,1.832,2.661c8.492,1.721,13.09-2.731,17.93-4.203
			c3.547-3.822,5.225-7.54,7.26-12.433c2.562,0.439,2.949-5.631,3.773-8.117c0,0,0.957,0.637,1.051,0.375
			c2.248-3.162-3.955-6.668-1.725-8.949C263.64,199.449,248.371,196.677,241.861,205.002z"/>
		<path style="fill:#D1D5D5;" d="M286.947,187.937c-0.75-3.045-0.08-4.758-0.107-7.014c7.986,0.653,13.686-5.063,21.018-3.578
			c3.035-2.88,6.693-1.697,10.322-0.762c5.35-2.412,11.391-2.273,17.49-1.641c1.443-2.561,5.734-1.329,8.205-0.629
			c0.494-0.061,0.156-0.771,0.203-1.404c1.717-0.336,1.387,2.089,3.428,1.338c0.383,1.08-1.227,2.283-0.828,3.488
			c0.893,1.145,2.553-1.693,3.01,1.012c-0.621,1.079-2.197,1.523-2.143,4.025c-16.74,4.686-27.514,0.736-40.807,3.869
			c-0.002,1.004-2.336,1.416-1.717,1.34C300.404,187.167,294.431,190.66,286.947,187.937z M354.828,193.048
			c-13.559,4.045-32.227,6.331-45.164,10.3c-0.076-0.617-2.871-0.902-2.947-1.521c-2.617,2.202-9.361,0.395-10.947,3.851
			c1.139,2.119-8.189,0.752-3.793,10c5.215,2.625,8.605-0.426,10.736-0.436c3.158,3.25,5.084-0.498,10.092-1.613
			c13.447-2.901,32.746-5.139,44.992-9.65C359.875,200.461,356.873,196.437,354.828,193.048z"/>
		<path style="fill:#D1D5D5;" d="M392.168,178.312c2.068,0.5,4.775-0.961,5.291-2.906c5.084-1.502,9.348-1.521,12.734-2.564
			c0.881,0.019,1.357,0.838,2.02,1.134c0.342-0.292,0.25-1.034,1.256-1.032c1.17,1.363,3.549,1.322,4.967,2.654
			c0.449-0.432,0.357-1.174,1.238-1.155c2.836,2.664,5.889,5.05,8.059,8.424c2.375,14.263-2.139,27.613-11.848,36.458
			c0.092,0.74,0.182,1.482,0.273,2.223c-4.705,3.589-9.166,9.154-14.789,9.342c1.496-0.059-1.621-0.932-2.721,0.332
			c-11.83-1.311-18.67-9.005-24.982-17.518c-0.184-0.479-0.91-0.264-1.404-0.203c-8.002-13.074-8.645-27.551-7.049-42.176
			c3.346-3.42,2.424-10.961,5.779-13.254c-1.396-3.217,3.348-4.426,2.756-8.242c2.49-1.184,3.607-3.328,4.447-5.689
			c1.221-0.275,1.748-1.093,3.094-1.383c7.443-11.953,26.158-2.576,27.613,9.291c0.229,0.851,1.775,0.16,1.586,1.688
			c-2.336,1.416,0.432,0.449-0.225,3.291c-1.652-0.175-3.293,0.779-5.316,0.65c-0.215-0.727,0.266-0.912,0.205-1.406
			c-6.67-1.189-3.729-9.957-10.059-11.439c-3.854,2.354-8.012,4.244-8.689,8.969c-4.934,2.736-4.75,9.365-7.742,13.621
			c0.293,0.34,0.461,0.696,1.096,0.744c-6.227,6.533-2.191,17.959-4.105,23.84c0.645,1.176,1.832,1.658,2.246,2.987
			c1.691-2.591,1.965-6.514,6.137-7.276c-0.107-0.865-0.74-0.912-0.723-1.793c1.086-1.389,4.219-0.391,3.049-1.754
			c0.465-0.307,3.691-0.578,1.938-2.621C391.306,182.557,391.097,179.824,392.168,178.312z M397.912,209.856
			c-0.035,1.76-0.359,2.177,0.889,3.152c-3.648,0.948-2.871,5.245-7.352,5.543c0.564,3.569,2.99,2.896,5.262,2.993
			c1.283-0.783,0.467-1.311,1.889-1.986c1.188,0.482,0.059,1.498,1.912,1.271c1.682,0.423,0.484-2.192,1.613-2.204
			c0.045,0.371,0.971,0.76,1.465,0.699c4.873-3.232,8.904-9.248,9.713-17c1.621-0.073,1.301-1.666,2.492-2.188
			c1.219-5.42,5.543-17.24-2.895-16.459c0.018-0.879-0.725-0.789-1.154-1.237c-14.018,2.343-23.627,15.063-24.918,25.009
			C388.992,212.829,393.478,210.524,397.912,209.856z"/>
	</g>
	<path style="fill:#48B19B;" d="M436.898,388.146c0,4.726-1.857,8.558-4.147,8.558H326.577c-2.29,0-4.147-3.832-4.147-8.558l0,0
		c0-4.725,1.857-8.555,4.147-8.555h106.174C435.041,379.591,436.898,383.421,436.898,388.146L436.898,388.146z"/>
	<path style="fill:#49A893;" d="M323.063,392.693c-0.401-1.318-0.634-2.877-0.634-4.547l0,0c0-4.725,1.857-8.555,4.147-8.555
		c0,0-1.277,3.318-1.114,6.551c0.332,6.552,10.021,6.552,10.021,6.552L323.063,392.693z"/>
	<path style="fill:#49A893;" d="M436.264,392.693c0.401-1.318,0.634-2.877,0.634-4.547l0,0c0-4.725-1.857-8.555-4.147-8.555
		c0,0,1.277,3.318,1.114,6.551c-0.331,6.552-10.021,6.552-10.021,6.552L436.264,392.693z"/>
	<path style="opacity:0.3;fill:#FFFFFF;enable-background:new    ;" d="M423.843,382.48c0,0.729-0.398,1.319-0.892,1.319h-87.253
		c-0.492,0-0.892-0.59-0.892-1.319l0,0c0-0.729,0.399-1.319,0.892-1.319h87.253C423.445,381.161,423.843,381.75,423.843,382.48
		L423.843,382.48z"/>
	<g>
		<polygon style="opacity:0.2;fill:#2D404E;enable-background:new    ;" points="148.81,412.869 135.605,460.828 178.325,425.789 
			181.865,412.869 		"/>
		<polygon style="opacity:0.2;fill:#2D404E;enable-background:new    ;" points="363.189,412.869 376.394,460.828 333.675,425.789 
			330.135,412.869 		"/>
		<rect x="240.067" y="412.869" style="opacity:0.2;fill:#2D404E;enable-background:new    ;" width="31.865" height="16"/>
	</g>
	<polygon style="opacity:0.7;fill:#253744;enable-background:new    ;" points="365.353,280.726 390.884,332.536 416.488,322.87 	
		"/>
	<g>
		<path style="fill:#D1D5D5;" d="M415.627,326.787c-1.147,1.196-3.047,1.235-4.242,0.089l-45.182-43.331
			c-1.197-1.146-1.236-3.046-0.09-4.241l7.383-7.699c1.147-1.195,3.046-1.234,4.242-0.088l45.182,43.331
			c1.196,1.146,1.235,3.046,0.089,4.241L415.627,326.787z"/>
		<path style="fill:#C6CBCB;" d="M415.627,326.787l0.861-0.898l-48.333-43.47c5.93-5.563,7.902-9.3,8.453-11.574
			c-1.065-0.354-2.283-0.104-3.112,0.76l-7.383,7.699c-1.146,1.195-1.107,3.095,0.09,4.241l45.182,43.331
			C412.58,328.022,414.479,327.983,415.627,326.787z"/>
	</g>
</g>
<g>
</g>
<g>
</g>
<g>
</g>
<g>
</g>
<g>
</g>
<g>
</g>
<g>
</g>
<g>
</g>
<g>
</g>
<g>
</g>
<g>
</g>
<g>
</g>
<g>
</g>
<g>
</g>
<g>
</g>
</svg>
