<?xml version="1.0" encoding="iso-8859-1"?>
<!-- Generator: Adobe Illustrator 19.0.0, SVG Export Plug-In . SVG Version: 6.00 Build 0)  -->
<svg version="1.1" id="Layer_1" xmlns="http://www.w3.org/2000/svg" xmlns:xlink="http://www.w3.org/1999/xlink" x="0px" y="0px"
	 viewBox="0 0 512 512" style="enable-background:new 0 0 512 512;" xml:space="preserve">
<g>
	<ellipse style="opacity:0.2;fill:#253744;enable-background:new    ;" cx="256" cy="495.971" rx="184.351" ry="16.029"/>
	<ellipse style="opacity:0.2;fill:#253744;enable-background:new    ;" cx="113.251" cy="495.971" rx="8.579" ry="3.513"/>
	<ellipse style="opacity:0.2;fill:#253744;enable-background:new    ;" cx="399.692" cy="495.971" rx="8.578" ry="3.513"/>
	<path style="fill:#D1D5D5;" d="M262.489,19.005c0-3.072-2.49-5.562-5.562-5.562h-1.852c-3.072,0-5.562,2.49-5.562,5.562v66.747
		c0,3.072,2.49,5.562,5.562,5.562h1.852c3.072,0,5.562-2.49,5.562-5.562V19.005z"/>
	<rect x="249.512" y="68.024" style="opacity:0.7;fill:#586A73;enable-background:new    ;" width="3.939" height="18.89"/>
	<path style="fill:#2D404E;" d="M256,84.154c-30.977,0-56.086,25.109-56.086,56.086c0,20.66,11.178,38.698,27.809,48.43
		l5.141-14.723c-10.719-7.371-17.749-19.716-17.749-33.707c0-22.582,18.304-40.886,40.886-40.886s40.886,18.304,40.886,40.886
		c0,13.991-7.03,26.336-17.749,33.707l5.141,14.723c16.631-9.731,27.809-27.77,27.809-48.43
		C312.086,109.263,286.976,84.154,256,84.154z"/>
	<path style="fill:#253744;" d="M256,94.261c-25.979,0-45.676,20.797-45.676,45.979c0,25.183,20.934,38.303,20.934,38.303
		l1.605-4.596c-10.719-7.371-17.749-19.716-17.749-33.707c0-22.582,18.304-40.886,40.886-40.886
		c22.582,0,40.886,18.304,40.886,40.886c0,13.991-7.03,26.336-17.749,33.707l1.741,4.983c0,0,20.767-8.268,20.767-38.69
		S281.98,94.261,256,94.261z"/>
	<path style="fill:#2D404E;" d="M354.036,233.617c0,1.791-1.453,3.244-3.244,3.244H161.21c-1.792,0-3.245-1.453-3.245-3.244l0,0
		c0-1.791,1.453-3.244,3.245-3.244h189.582C352.582,230.372,354.036,231.826,354.036,233.617L354.036,233.617z"/>
	<path style="fill:#253744;" d="M158.325,235.073c0.535,1.057,1.62,1.788,2.885,1.788h189.582c1.264,0,2.349-0.731,2.884-1.788
		H158.325z"/>
	<path style="fill:#2D404E;" d="M269.352,5.1c0-2.816-5.125-5.1-11.446-5.1h-3.811c-6.321,0-11.446,2.283-11.446,5.1v61.185
		c0,2.815,5.125,5.098,11.446,5.098h3.811c6.321,0,11.446-2.282,11.446-5.098V5.1z"/>
	<path style="fill:#EB8923;" d="M249.671,135.962l-12.787-4.509c-2.569-0.904-5.479,0.71-6.499,3.607L119.429,453.745
		c-1.022,2.897,0.232,5.981,2.8,6.886l10.005,4.508c2.567,0.905,5.478-0.71,6.499-3.607L252.47,142.847
		C253.493,139.951,252.239,136.867,249.671,135.962z"/>
	<polygon style="fill:#D1D5D5;" points="123.552,461.227 112.309,495.971 131.35,464.742 	"/>
	<path style="fill:#D27228;" d="M249.671,135.962l-3.16-1.113L131.35,464.742l0.885,0.397c2.567,0.905,5.478-0.71,6.499-3.607
		l113.737-318.685C253.493,139.951,252.239,136.867,249.671,135.962z"/>
	<path style="fill:#EB8923;" d="M392.571,453.745L281.616,135.06c-1.021-2.897-3.93-4.512-6.499-3.607l-12.787,4.509
		c-2.567,0.904-3.821,3.988-2.8,6.885l113.736,318.685c1.022,2.897,3.933,4.513,6.499,3.607l10.005-4.508
		C392.338,459.727,393.593,456.643,392.571,453.745z"/>
	<polygon style="fill:#253744;" points="389.77,460.631 380.65,464.742 399.692,495.971 	"/>
	<path style="fill:#D27228;" d="M265.49,134.849l-3.16,1.113c-2.567,0.904-3.821,3.988-2.8,6.885l113.736,318.685
		c1.022,2.897,3.933,4.513,6.499,3.607l0.885-0.397L265.49,134.849z"/>
	<path style="fill:#2D404E;" d="M266.43,252.62c0,3.071-4.004,5.562-8.941,5.562h-2.977c-4.938,0-8.941-2.491-8.941-5.562v-38.007
		c0-3.072,4.004-5.562,8.941-5.562h2.977c4.938,0,8.941,2.49,8.941,5.562V252.62z"/>
	<circle style="fill:#2D404E;" cx="256" cy="156.481" r="13.352"/>
	<g>
		<circle style="fill:#253744;" cx="141.279" cy="424.472" r="13.906"/>
		<circle style="fill:#2D404E;" cx="139.946" cy="425.224" r="13.187"/>
		<circle style="fill:#EB8923;" cx="139.946" cy="425.224" r="3.941"/>
		<path style="fill:#D27228;" d="M141.607,428.797c1.973-0.917,2.829-3.259,1.912-5.235c-0.918-1.973-3.263-2.828-5.235-1.91
			c0,0,3.771-0.024,4.385,2.82C143.282,427.317,141.607,428.797,141.607,428.797z"/>
	</g>
	<g>
		<circle style="fill:#253744;" cx="370.722" cy="424.472" r="13.905"/>
		<circle style="fill:#2D404E;" cx="372.054" cy="425.224" r="13.188"/>
		<circle style="fill:#EB8923;" cx="372.055" cy="425.224" r="3.941"/>
		<path style="fill:#D27228;" d="M373.715,428.797c1.973-0.915,2.83-3.259,1.912-5.233s-3.262-2.83-5.235-1.912
			c0,0,3.771-0.024,4.385,2.822C375.391,427.317,373.715,428.797,373.715,428.797z"/>
	</g>
	<polygon style="fill:#586A73;" points="389.77,460.631 386.869,461.939 399.692,495.971 	"/>
	<polygon style="fill:#C6CBCB;" points="131.35,464.742 123.552,461.227 128.242,465.391 112.309,495.971 	"/>
	<path style="fill:#253744;" d="M250.438,223.188c0.142-6.377,1.095-10.88,2.17-14.008c-4.021,0.543-7.037,2.769-7.037,5.434v38.007
		c0,3.071,4.004,5.562,8.941,5.562h2.977c4.938,0,8.941-2.491,8.941-5.562v-0.609C252.827,254.602,250.106,238.133,250.438,223.188z
		"/>
	<rect x="172.533" y="230.372" style="fill:#253744;" width="2.372" height="6.457"/>
	<path style="fill:#2D404E;" d="M185.777,236.861c0,3.072-2.491,5.562-5.562,5.562h-0.926c-3.072,0-5.562-2.49-5.562-5.562v-6.488
		c0-3.071,2.491-5.562,5.562-5.562h0.926c3.071,0,5.562,2.491,5.562,5.562V236.861z"/>
	<path style="fill:#253744;" d="M179.751,240.07c-2.531,0-4.336-0.449-5.509-0.898c0.878,1.914,2.802,3.252,5.046,3.252h0.926
		c2.271,0,4.215-1.364,5.08-3.313C184.181,239.578,182.401,240.07,179.751,240.07z"/>
	<rect x="337.392" y="230.372" style="fill:#253744;" width="2.26" height="6.112"/>
	<path style="fill:#2D404E;" d="M326.224,236.861c0,3.072,2.49,5.562,5.562,5.562h0.926c3.072,0,5.562-2.49,5.562-5.562v-6.488
		c0-3.071-2.49-5.562-5.562-5.562h-0.926c-3.072,0-5.562,2.491-5.562,5.562V236.861z"/>
	<path style="fill:#253744;" d="M332.267,240.07c2.531,0,4.336-0.449,5.509-0.898c-0.878,1.914-2.801,3.252-5.046,3.252h-0.926
		c-2.271,0-4.216-1.364-5.08-3.313C327.837,239.578,329.618,240.07,332.267,240.07z"/>
	<path style="fill:#253744;" d="M268.309,161.651c-2.854,6.8-10.682,9.996-17.481,7.141c-6.796-2.856-9.993-10.682-7.138-17.481
		c0,0-0.305,7.729,7.775,12.12C259.544,167.822,268.309,161.651,268.309,161.651z"/>
	<path style="fill:#253744;" d="M259.94,68.024c-8.971,0-12.515-3.36-12.515-13.095c0-7.501,0-39.619,0-53.967
		c-2.889,0.924-4.776,2.432-4.776,4.138v61.185c0,2.815,5.125,5.098,11.446,5.098h3.811c6.291,0,11.394-2.261,11.442-5.059
		C267.082,67.217,263.938,68.024,259.94,68.024z"/>
</g>
<g>
</g>
<g>
</g>
<g>
</g>
<g>
</g>
<g>
</g>
<g>
</g>
<g>
</g>
<g>
</g>
<g>
</g>
<g>
</g>
<g>
</g>
<g>
</g>
<g>
</g>
<g>
</g>
<g>
</g>
</svg>
