<?xml version="1.0" encoding="iso-8859-1"?>
<!-- Generator: Adobe Illustrator 19.0.0, SVG Export Plug-In . SVG Version: 6.00 Build 0)  -->
<svg version="1.1" id="Layer_1" xmlns="http://www.w3.org/2000/svg" xmlns:xlink="http://www.w3.org/1999/xlink" x="0px" y="0px"
	 viewBox="0 0 512 512" style="enable-background:new 0 0 512 512;" xml:space="preserve">
<g>
	<path style="fill:#D1D5D5;" d="M332.089,411.186c1.197,3.626,0.021,7.279-2.621,8.153l0,0c-2.641,0.867-5.756-1.378-6.951-5.01
		L189.038,8.346c-1.193-3.624-0.02-7.293,2.625-8.16l0,0c2.639-0.868,5.756,1.387,6.949,5.018L332.089,411.186z"/>
	<path style="opacity:0.2;fill:#586A73;enable-background:new    ;" d="M191.273,0.344c-2.365,1.088-3.365,4.562-2.234,8.002
		l133.479,405.983c1.082,3.284,3.73,5.425,6.18,5.166L191.273,0.344z"/>
	<rect x="266.009" y="402.091" style="fill:#2D404E;" width="33.141" height="43.89"/>
	<rect x="266.009" y="402.091" style="opacity:0.6;fill:#253744;enable-background:new    ;" width="12.158" height="43.89"/>
	<polygon style="fill:#D1D5D5;" points="322.464,461.795 243.048,461.795 202.757,489.402 362.394,489.402 	"/>
	<path style="fill:#D1D5D5;" d="M362.324,375.001c-1.986-4.557-5.889-7.3-10.324-8.909c-23.412,11.386-49.695,17.781-77.48,17.781
		c-97.982,0-177.412-79.426-177.412-177.409c0-89.384,66.121-163.304,152.109-175.585c2.482-4.178,3.744-9.398,2.012-15.745
		c-1.678-6.165-6.92-9.796-12.609-11.96c-96.906,16.998-170.566,101.52-170.566,203.29c0,114.029,92.438,206.466,206.467,206.466
		c30.924,0,60.23-6.846,86.566-19.029C364.06,388.862,365.579,382.461,362.324,375.001z"/>
	<path style="fill:#D1D5D5;" d="M334.665,455.385c0,5.193-4.213,9.405-9.406,9.405H239.9c-5.193,0-9.406-4.212-9.406-9.405l0,0
		c0-5.191,4.213-9.404,9.406-9.404h85.359C330.452,445.98,334.665,450.193,334.665,455.385L334.665,455.385z"/>
	<path style="fill:#D1D5D5;" d="M393.611,501.097c0,6.021-3.727,10.903-8.322,10.903H179.84c-4.596,0-8.32-4.882-8.32-10.903v-6.662
		c0-6.022,3.725-10.903,8.32-10.903h205.449c4.596,0,8.322,4.881,8.322,10.903V501.097z"/>
	<g>
		<circle style="fill:#2D404E;" cx="282.565" cy="208.051" r="161.382"/>
		<path style="fill:#48B19B;" d="M443.947,208.051c0-32.378-9.535-62.529-25.951-87.799c0,0-9.205,13.45-7.477,22.095
			s11.887,9.306,10.844,15.646c-1.045,6.344-8.537-1.814-17.76,14.898c-9.223,16.715-4.609,39.775,8.645,41.503
			C425.503,216.119,443.947,208.051,443.947,208.051z"/>
		<path style="fill:#48B19B;" d="M324.947,52.294c18.783,5.098,36.205,13.504,51.602,24.555c0,0-18.711-3.087-25.801,3.251
			c-7.088,6.34-17.426,21.327-25.801,0S324.947,52.294,324.947,52.294z"/>
		<path style="fill:#48B19B;" d="M161.224,101.651c29.578-33.702,72.973-54.981,121.34-54.981c0,0-10.949,6.629,9.801,17.867
			c20.75,11.24,11.238,16.428,6.916,19.885c-4.322,3.459-11.82-6.916-16.717-13.832s-25.93-17.578-42.068-11.812
			c-16.139,5.764-29.969,10.023-27.666,15.386c2.305,5.362,29.969-5.008,40.344-4.435c10.375,0.576,6.916,6.914-2.881,14.407
			c-9.797,7.492-10.951,16.714-0.576,22.477c10.373,5.768,23.051,6.344,25.936,2.885c2.883-3.457-5.188-25.936,14.41-16.139
			c19.596,9.797,35.736,15.565,19.596,29.973c-16.139,14.406-34.582,30.55-35.158,39.767c-0.578,9.221,5.766,16.719,2.307,17.293
			s-6.633-3.746-8.936-6.918c-2.303-3.17-12.969-4.32-18.154-2.307c-5.188,2.017-14.988,9.799-9.512,17.291
			c5.479,7.496,12.965,4.033,20.459,7.49c7.494,3.459,14.482,16.622,13.047,19.596c-1.434,2.975-7.822-0.791-13.047-10.949
			s-15.025-3.459-21.92-5.188c-6.896-1.729-12.084-2.881-19-14.984s-21.236-15.491-27.088-22.478
			c-16.762-20.015-15.562-35.158-19.02-42.074C170.177,112.952,161.224,101.651,161.224,101.651z"/>
		<path style="fill:#48B19B;" d="M298.126,210.357c0,0,17.291,1.727,25.936,9.221s9.801,10.377,23.055,13.258
			c13.256,2.881,19.021,10.371,10.375,24.781c-8.645,14.41-24.209,37.464-31.701,44.382c-7.49,6.918-16.713,12.682-20.17,24.208
			c-3.459,11.526-4.613,18.437,2.881,23.053c0,0-4.033,9.799-13.256-2.882c-9.223-12.682-1.73-27.664,0-36.311
			c1.729-8.645,6.338-34.578,3.457-40.922c-2.879-6.341-16.139-10.376-19.596-23.63C275.648,232.26,281.7,206.465,298.126,210.357z"
			/>
		<path style="opacity:0.6;fill:#253744;enable-background:new    ;" d="M396.679,322.166c-63.023,63.024-165.203,63.022-228.229,0
			c-63.025-63.023-63.025-165.205,0-228.228c0,0-55.832,83.635,47.65,187.479C303.628,369.25,396.679,322.166,396.679,322.166z"/>
	</g>
	<path style="opacity:0.2;fill:#586A73;enable-background:new    ;" d="M245.587,445.98h-5.688c-5.193,0-9.406,4.213-9.406,9.404
		c0,5.193,4.213,9.405,9.406,9.405h5.721c-1.996-2.42-4.271-5.94-4.271-9.404C241.349,451.941,243.599,448.419,245.587,445.98z"/>
	<polygon style="opacity:0.2;fill:#586A73;enable-background:new    ;" points="326.622,464.67 238.472,464.67 211.325,483.531 
		228.782,483.531 246.804,467.881 331.265,467.881 	"/>
	<path style="opacity:0.2;fill:#586A73;enable-background:new    ;" d="M179.839,483.531c-4.596,0-8.32,4.881-8.32,10.903v6.662
		c0,6.021,3.725,10.903,8.32,10.903h8.732V483.53L179.839,483.531L179.839,483.531z"/>
	<path style="opacity:0.2;fill:#586A73;enable-background:new    ;" d="M124.845,335.24
		c-43.834-42.102-77.863-174.756-3.662-250.888c51.082-52.412,101.629-68.467,128.168-73.384c-2.449-3.724-6.465-6.171-10.732-7.795
		c-96.906,16.998-170.566,101.52-170.566,203.29c0,114.029,92.438,206.466,206.467,206.466c30.924,0,60.23-6.846,86.566-19.029
		c1.906-3.229,3.207-7.02,3.043-11.288c-11.609,8.843-35.871,21.858-78.947,22.992C219.431,407.335,168.677,377.343,124.845,335.24z
		"/>
</g>
<g>
</g>
<g>
</g>
<g>
</g>
<g>
</g>
<g>
</g>
<g>
</g>
<g>
</g>
<g>
</g>
<g>
</g>
<g>
</g>
<g>
</g>
<g>
</g>
<g>
</g>
<g>
</g>
<g>
</g>
</svg>
