<svg xmlns="http://www.w3.org/2000/svg" width="135.035" height="106.969" viewBox="0 0 135.035 106.969"><defs><style>.a{fill:#222129;}.b{fill:#144d2d;stroke:#707070;}.c{fill:#04d361;}.d{fill:#fff;}.e{stroke:none;}.f{fill:none;}</style></defs><g transform="translate(0 0)"><g transform="translate(0 0)"><g transform="translate(0)"><path class="a" d="M41.505,106.97a4.118,4.118,0,0,1,0-8.235H53.178c3.352,0,4.118-2.132,4.118-4.118a4.117,4.117,0,0,0-3.339-4.044c-11.663-.032-21.8-.073-22.743-.073H16.96a4.118,4.118,0,1,1,0-8.235H39.4a4.117,4.117,0,0,0,.434-8.212H28.562a3.818,3.818,0,0,1-.433-.024H25.236a4.118,4.118,0,1,1,0-8.235H40.657a4.117,4.117,0,0,0-.429-8.212H34.851c-.043,0-.083-.008-.126-.008H10.41a4.116,4.116,0,1,1,0-8.231H28.372a4.118,4.118,0,0,0,0-8.236H4.118a4.119,4.119,0,0,1,0-8.239H36.559a4.117,4.117,0,0,0,.776-8.161H32.012a4.136,4.136,0,0,1-.775-.075H28.686a4.118,4.118,0,1,1,0-8.235c10.708,0,22.594.014,35.384.031a4.117,4.117,0,0,0-.58-8.193H51.823a4.118,4.118,0,0,1,0-8.235h34.4a4.118,4.118,0,0,1,0,8.235H80.842a4.117,4.117,0,0,0-.421,8.212c11.2.014,22.94.023,35.074.023a4.118,4.118,0,1,1,0,8.235H83.053a4.117,4.117,0,0,0-.776,8.161h24.2a4.129,4.129,0,0,1,.775.075H109.8a4.118,4.118,0,1,1,0,8.235h-7.214a4.117,4.117,0,0,0,.771,8.161h17.961l-21.011.007h30.607a4.118,4.118,0,0,1,0,8.236H106.664a4.118,4.118,0,1,0,0,8.235h17.96a4.118,4.118,0,1,1,0,8.236H98.476a4.117,4.117,0,0,0-.434,8.212h4.981a4.066,4.066,0,0,1,.433.023h2.894a4.118,4.118,0,1,1,0,8.235H90.924c-.5.052-4.11.077-9.331.086a4.118,4.118,0,0,0,.941,8.127h12.25a4.118,4.118,0,0,1,0,8.235Z" transform="translate(135.035 106.97) rotate(180)"/></g></g><g transform="translate(24.502 14.154)"><g class="b" transform="translate(14.411 10.692)"><ellipse class="e" cx="28.087" cy="27.53" rx="28.087" ry="27.53"/><ellipse class="f" cx="28.087" cy="27.53" rx="27.587" ry="27.03"/></g><path class="c" d="M1581.982-294.107c-9.24-4.939-18.593-9.988-27.833-14.927a6.618,6.618,0,0,0-6.085,0c-9.24,4.939-18.481,9.988-27.721,14.927a5.594,5.594,0,0,0-3.042,4.72v30.073a5.446,5.446,0,0,0,3.155,4.829c2.592,1.317,5.071,2.744,7.663,4.061l15.1,8.122,4.62,2.524a4.045,4.045,0,0,0,1.014.439l.451.22h.113a6.65,6.65,0,0,0,4.62-.439c9.241-4.939,18.481-9.988,27.722-14.927a5.519,5.519,0,0,0,3.155-4.829v-30.073A5.623,5.623,0,0,0,1581.982-294.107Zm-40,33.7-7.212,6.476a.422.422,0,0,1-.338.11h-.113a.209.209,0,0,1-.113-.329l2.592-9.22a3.093,3.093,0,0,1,2.028-2.2l.112-.11a1.012,1.012,0,0,1,.789.11c.451.329.789.549,1.239.878a8.45,8.45,0,0,0,1.353.768.742.742,0,0,1,.451.659l.225.219A3.056,3.056,0,0,1,1541.979-260.412Zm7.437-6.366c-.112,0-.112.11-.225.11l-2.254-.219a.842.842,0,0,0-.676.219l-2.479,2.2a.421.421,0,0,1-.338.11,16.9,16.9,0,0,1-3.38-1.976c-.113-.11-.225-.22-.113-.329l.788-3.183c.113-.22,0-.439-.112-.659l-1.24-1.866c0-.11-.113-.11-.113-.22,0-.22.113-.439.113-.768v-.11h0s.113-.11.113,0c1.014.659,5.3,3.183,5.3,3.183s4.282,2.524,5.3,3.183a.4.4,0,0,1,.112.329Zm15.1-20.086.113.11,2.254.329H1567c.451.11,1.014.659.225,1.646l-9.466,12.512a.692.692,0,0,1-.451.11l-3.831-2.3a1.243,1.243,0,0,0-1.239,0l-1.24.768a1.249,1.249,0,0,1-1.24,0,1.79,1.79,0,0,0-2.366.22,4.844,4.844,0,0,1-5.522.219l-5.071-3.073-.225-.22h0a1.4,1.4,0,0,1-.112-2.085h0a1.691,1.691,0,0,1,2.253-.549l1.014.549h.113c.113.11.225,0,.225-.11l.225-1.317c0-.11,0-.22-.112-.22l-.225-.11a1,1,0,0,1-.338-1.317.919.919,0,0,1,1.239-.329l6.874,4.061h.113c.113.11.225,0,.338-.11l7.1-9.439a1.269,1.269,0,0,1,1.24-.439l1.8.22,1.239.22c0,.11.113,0,.113,0,.112-.11.112-.11,0-.11a1.023,1.023,0,0,1-.225-1.427l2.366-3.183a1.324,1.324,0,0,1,1.127-.439l4.507.659a.591.591,0,0,1,.451.22l.112.11c.226.22.113.549-.112.768,0,0-2.254,2.963-3.043,4.061v.11C1564.29-287.083,1564.29-286.973,1564.516-286.863Z" transform="translate(-1508.398 312.384)"/><path class="d" d="M1555.351-306.278c2.968-2.3,4.6-2.776,7.084-2.776a4.871,4.871,0,0,1,2.106.479c2.2,1.244,3.159,4.978,2.489,10.339l3.159,1.723c1.053-7.658-.383-12.923-4.116-15.029a7.583,7.583,0,0,0-3.829-.957c-3.351,0-6.031.957-10.243,4.308C1553.245-307.522,1554.3-306.852,1555.351-306.278Z" transform="translate(-1502.311 312.5)"/><path class="d" d="M1516.9-271.76c-4.4-2.106-5.457-3.829-5.457-6.222,0-2.489,2.489-4.882,6.988-6.988V-288.8c-6.7,2.776-10.435,6.605-10.435,10.722,0,4.212,2.2,7.18,8.9,9.956Z" transform="translate(-1508 315.933)"/><path class="d" d="M1526.438-299.76c-.574-5.265.383-7.467,2.68-8.711a3.415,3.415,0,0,1,2.106-.479c2.489,0,5.361,1.34,8.329,3.638l3.159-1.723c-4.116-3.35-8.233-5.265-11.583-5.265a7.586,7.586,0,0,0-3.829.957c-3.734,2.2-5.265,5.839-4.116,13.5C1524.332-298.611,1525.385-299.185,1526.438-299.76Z" transform="translate(-1506.022 312.492)"/><path class="d" d="M1577.132-287.8v3.638c4.4,2.106,5.457,3.829,5.457,6.222,0,2.489-2.489,4.882-6.988,6.988v3.829c6.7-2.776,10.434-6.605,10.434-10.722C1586.035-282.056,1583.929-285.024,1577.132-287.8Z" transform="translate(-1500.713 316.078)"/><path class="d" d="M1538.419-249.54c-2.968,2.3-4.6,2.776-7.084,2.776a4.873,4.873,0,0,1-2.106-.479c-2.3-1.244-3.159-5.074-2.489-10.339-1.053-.574-2.2-1.149-3.255-1.819-1.053,7.563.383,12.828,4.02,14.934a7.587,7.587,0,0,0,3.829.957c3.35.1,6.127-.862,10.339-4.212Z" transform="translate(-1506.042 319.292)"/><path class="d" d="M1567.166-255.881c.574,5.265-.479,7.467-2.681,8.711a3.414,3.414,0,0,1-2.106.479c-2.489,0-5.361-1.34-8.424-3.638-1.053.574-2.106,1.149-3.255,1.723,4.212,3.446,8.233,5.361,11.679,5.361a7.587,7.587,0,0,0,3.829-.957c3.733-2.2,5.361-5.839,4.116-13.5C1569.368-257.126,1568.219-256.551,1567.166-255.881Z" transform="translate(-1502.278 319.219)"/></g></g></svg>