<?xml version="1.0" encoding="iso-8859-1"?>
<!-- Generator: Adobe Illustrator 19.0.0, SVG Export Plug-In . SVG Version: 6.00 Build 0)  -->
<svg version="1.1" id="Layer_1" xmlns="http://www.w3.org/2000/svg" xmlns:xlink="http://www.w3.org/1999/xlink" x="0px" y="0px"
	 viewBox="0 0 512.001 512.001" style="enable-background:new 0 0 512.001 512.001;" xml:space="preserve">
<g>
	<path style="fill:#915A26;" d="M327.08,298.719c8.909-3.108,16.45-8.978,21.117-17.311c11.373-20.305,1.366-47.532-22.348-60.816
		c-23.716-13.284-52.162-7.594-63.534,12.709c-6.549,11.691-6.011,25.678,0.156,37.977c0,0-4.023-38.448,34.098-32.253
		c35.881,5.83,45.312,19.868,42.32,37.479C335.899,294.116,327.08,298.719,327.08,298.719z"/>
	<path style="fill:#915A26;" d="M485.906,233.105c-7.032,69.006-72.338,142.489-153.948,174.958
		c-97.841,38.927-83.798-39.997-39.61-49.465c44.188-9.469-51.811-106.994-77.06-19.673c-25.249,87.32-73.61,76.77-135.682,64.816
		C35.208,395.192,2.885,329.293,11.821,256c0,0-27.312,89.264,1.095,137.658c28.404,48.395,75.493,75.128,115.471,71.972
		c39.979-3.157,78.291-23.665,90.478-82.061s45.402-58.328,59.8-35.591c11.597,18.314-37.129,20.417-29.308,70.11
		c4.43,28.144,29.482,48.539,71.079,30.304c44.356-19.445,117.391-69.138,143.791-134.458
		C488.182,254.667,485.906,233.105,485.906,233.105z"/>
	<path style="fill:#9D6227;" d="M482.931,194.199C461.889,121.607,369.309,55.327,272.519,52.171
		C175.73,49.014,69.873,148.504,40.014,194.199c-69.436,106.257-25.249,221.984,36.822,233.937
		c62.072,11.954,115.727,11.192,140.977-76.129c25.249-87.321,109.414-2.104,65.227,7.364s-48.395,97.843,49.446,58.916
		C430.325,379.361,503.972,266.791,482.931,194.199z M347.147,280.685c-11.079,19.782-38.791,25.323-61.894,12.384
		c-23.104-12.942-32.853-39.468-21.772-59.248c11.079-19.78,38.791-25.323,61.895-12.382
		C348.478,234.379,358.227,260.906,347.147,280.685z"/>
	<g>
		<path style="fill:#48B19B;" d="M296.879,97.974c-2.104-3.683-5.785-3.683-8.417-6.312c-4.733-4.208-3.68-3.156-5.26-8.416
			c-2.104-6.837-1.051-14.727-11.045-12.098c-7.365,1.578-11.924,12.634-18.936,9.469c-7.013-3.166-10.52-3.555-13.15-0.526
			c-5.436,6.257,5.785,11.572,7.892,20.514c1.576,5.26-4.211,9.994-1.579,15.253c4.207,10.52,11.571,0.526,17.883-1.051
			c9.469-2.631,8.417,4.733,12.098,12.097c9.467,17.358,22.094,1.578,23.144-12.623C300.034,109.545,299.508,102.182,296.879,97.974
			z"/>
	</g>
	<g>
		<path style="fill:#49A893;" d="M298.495,107.238c0.582,8.794-1.562,12.465-5.678,17.142c-4.115,4.677-7.241,5.1-11.041,3.248
			c-3.799-1.851-8.543-8.943-8.543-8.943c0.938,2.31,1.654,5.264,3.131,8.219c9.467,17.358,22.094,1.578,23.144-12.623
			c0.526-4.734,0-12.098-2.629-16.306C296.879,97.974,298.288,104.103,298.495,107.238z"/>
	</g>
	<g style="opacity:0.3;">
		<path style="fill:#E2E5E7;" d="M288.462,91.662c-4.733-4.208-3.68-3.156-5.26-8.416c-2.104-6.837-1.051-14.727-11.045-12.098
			c-7.365,1.578-11.924,12.634-18.936,9.469c-7.013-3.166-10.52-3.555-13.15-0.526c0,0,2.241-1.958,6.235-0.69
			c3.995,1.267,9.738,4.635,13.034,4.55c5.197-0.134,4.961-1.884,8.951-6.751c3.494-4.262,8.95-1.898,9.534,1.511
			c0.585,3.41,1.394,7.365,4.22,9.898S288.462,91.662,288.462,91.662z"/>
	</g>
	<g>
		<path style="fill:#2D404E;" d="M448.934,219.119c0,0-13.167,69.922-46.279,142.441c-33.111,72.525-62.514,138.434-82.324,132.658
			c-19.81-5.773,8.175-103.927,20.77-147.473c12.598-43.546,47.071-127.837,58.381-145.359L448.934,219.119z"/>
		<path style="fill:#253744;" d="M416.137,207.359l-16.656-5.973c-11.31,17.522-45.783,101.813-58.381,145.359
			c-12.595,43.546-40.579,141.699-20.77,147.473c2.979,0.869,6.175,0.115,9.569-2.04c0,0-14.182,5.986-11.628-16.303
			c2.554-22.286,45.839-157.763,67.869-203.32C408.172,227,416.137,207.359,416.137,207.359z"/>
		<polygon style="fill:#E2E5E7;" points="446.575,230.222 466.328,156.393 425.798,141.286 393.828,211.707 		"/>
		<path style="fill:#48B19B;" d="M466.328,156.393l-40.53-15.107c0,0-24.036-46.289-7.299-73.686s36.975-41.405,93.502-50.171
			c0,0-14.748,7.385-11.225,33.561c3.526,26.174,7.849,52.992,0.911,70.2C494.741,138.423,483.389,147.926,466.328,156.393z"/>
		<path style="fill:#49A893;" d="M512.001,17.429c-56.527,8.766-76.765,22.774-93.502,50.171s7.299,73.686,7.299,73.686
			l27.419,10.22c0,0,13.473-10.706,13.792-34.318c0.319-23.611-10.682-64.804,11.329-80.602S512.001,17.429,512.001,17.429z"/>
		<polygon style="fill:#D1D5D5;" points="425.798,141.286 446.261,148.913 415.398,219.28 393.828,211.707 		"/>
	</g>
	<g>
		<path style="fill:#F2B643;" d="M189.91,99.705c-5.375,5.905-7.809,16.121-15.12,20.11c-7.928,3.627-24.812-7.113-28.134,4.188
			c-2.854,9.091,14.714,14.436,21.597,16.821c12.171,4.661,9.894,9.949,18.918,18.56c13.591,12.12,40.357,18.725,51.205,0.248
			c6.147-10.471,0.35-14.703-8.526-20.742c-9.494-6.402-10.979-8.103-12.8-19.11c-2.182-10.392-3.306-12.708-12.545-18.131
			C204.505,101.648,194.383,94.792,189.91,99.705z"/>
	</g>
	<g>
		<path style="fill:#DF584C;" d="M72.826,193.109c4.87-7.508,11.428-18.569,21.427-17.855c14.284,1.428,9.999,14.284,17.855,22.141
			c14.284,14.285,44.282-24.998,65.709-12.855c8.57,4.999,8.57,19.998,2.856,24.998c-8.57,7.856-29.997,2.143-28.568,15.712
			c1.428,9.286,12.142,3.572,1.428,14.285c-4.285,4.286-22.855,11.429-29.283,12.142c-11.32,1.256-13.471-8.299-17.224-16.852
			c-4.251-9.687-5.638-14.336-15.113-10.247c-7.94,3.427-18.101,7.317-24.938-1.046C59.861,214.831,67.767,200.91,72.826,193.109z"
			/>
	</g>
	<g>
		<path style="fill:#EA8EBC;" d="M115.182,309.684c-1.084,2.108-2.111,4.222-2.945,6.337c-3.501,8.89-8.161,16.105-18.375,17.829
			c-5.362,0.905-10.258-2.734-16.221-1.442c-4.976,1.505-9.993,5.587-14.196,8.295c-7.806,5.028-16.211,10.444-23.387,0.623
			c-9.323-11.835,7.927-12.752,7.487-22.664c-0.266-8.328-11.338-9.689-10.789-19.388c0.844-15.836,9.648-8.765,17.758-8.042
			c15.623,1.832,7.674-9.19,15.732-17.781c3.643-4.896,6.433-5.842,12.57-5.549c7.724,0.122,7.256,4.672,12.365,7.327
			c6.721,3.599,15.043-1.36,21.529,3.118c5.484,3.791,6.811,11.379,5.016,17.216C120.262,300.328,117.583,305.005,115.182,309.684z"
			/>
	</g>
	<g>
		<path style="fill:#2D404E;" d="M145.677,368.094c-10.714,0-14.284,5-24.283-0.714c-3.593-2.054-4.572-7.36-8.718-8.372
			c-6.298-1.536-12.777,1.321-15.332,7.138c-2.412,5.491,1.062,13.042-5.373,16.358c-3.3,1.701-7.771,1.588-10.828,3.649
			c-7.588,5.112,0.525,16.121,4.996,20.088c8.086,7.173,20.131,11.848,30.969,11.848c5.715,0,16.428-1.428,19.284-6.427
			c2.144-4.286-3.571-10-1.429-12.856c4.286-7.144,24.284-2.143,28.569-15.714C167.104,372.379,154.962,368.094,145.677,368.094z"/>
	</g>
	<g style="opacity:0.3;">
		<path style="fill:#E2E5E7;" d="M229.85,138.89c-9.494-6.402-10.979-8.103-12.8-19.11c-2.182-10.392-3.306-12.708-12.545-18.131
			c0,0-10.122-6.856-14.595-1.944c0,0,3.154-3.722,14.266,4.913c9.012,7.003,6.814,16.552,11.593,22.813
			C222.73,136.552,229.85,138.89,229.85,138.89z"/>
	</g>
	<g>
		<path style="fill:#D89932;" d="M187.171,159.384c-9.024-8.611-6.747-13.899-18.918-18.56c-6.883-2.385-24.45-7.729-21.597-16.821
			c3.322-11.302,20.206-0.561,28.134-4.188c0,0-3.194,3.196-14.236,0.795c-9.63-2.093-13.202,5.619-5.521,11.141
			c7.681,5.522,17.283,3.84,23.525,12.243S187.171,159.384,187.171,159.384z"/>
	</g>
	<g>
		<path style="fill:#D672AD;" d="M47.545,318.662c-0.266-8.328-11.338-9.689-10.789-19.388c0.844-15.836,9.648-8.765,17.758-8.042
			c0,0-8.328-0.488-10.488,1.673c-2.16,2.16-4.607,8.987,0.326,13.196C49.668,310.638,47.545,318.662,47.545,318.662z"/>
	</g>
	<g style="opacity:0.3;">
		<path style="fill:#E2E5E7;" d="M121.727,295.563c1.795-5.837,0.469-13.425-5.016-17.216c-6.486-4.479-14.809,0.48-21.529-3.118
			c-5.109-2.655-4.642-7.205-12.365-7.327c0,0,4.167,1.927,6.809,7.449c2.641,5.522,10.104,6.158,15.865,5.678
			c5.761-0.481,12.615,0.292,14.958,6.657S121.727,295.563,121.727,295.563z"/>
	</g>
	<g style="opacity:0.3;">
		<path style="fill:#E2E5E7;" d="M97.344,366.146c2.555-5.816,9.034-8.674,15.332-7.138c4.146,1.012,5.125,6.318,8.718,8.372
			c9.999,5.714,13.569,0.714,24.283,0.714c9.285,0,21.427,4.285,17.855,14.998c0,0-0.302-7.562-10.444-9.781
			c-6.67-1.46-17.87,1.688-23.871,0.729c-6.002-0.959-12.289-2.736-14.555-7.86c-2.267-5.124-9.073-4.871-12.443-3.728
			C98.848,363.595,97.344,366.146,97.344,366.146z"/>
	</g>
	<g>
		<path style="fill:#253744;" d="M136.392,411.663c-2.856,4.999-13.569,6.427-19.284,6.427c-10.838,0-22.883-4.675-30.969-11.848
			c-4.471-3.967-12.584-14.976-4.996-20.088c0,0,1.451,5.584,7.393,12.785c5.941,7.203,22.065,16.514,33.942,15.124
			C134.354,412.673,136.392,411.663,136.392,411.663z"/>
	</g>
	<g>
		<path style="fill:#D672AD;" d="M40.058,341.326c7.176,9.821,15.581,4.405,23.387-0.623c4.203-2.708,9.221-6.79,14.196-8.295
			c5.963-1.292,10.858,2.348,16.221,1.442c10.214-1.724,14.874-8.939,18.375-17.829c0,0-6.705,13.869-14.893,14.684
			s-14.004-4.236-21.197-2.281s-14.358,10.849-21.633,14.5C47.24,346.576,40.058,341.326,40.058,341.326z"/>
	</g>
	<g style="opacity:0.3;">
		<path style="fill:#E2E5E7;" d="M180.674,209.537c5.714-5,5.714-19.999-2.856-24.998c-21.427-12.142-51.425,27.141-65.709,12.855
			c-3.36-3.36-4.499-7.636-5.82-11.541c-1.768-5.223-3.86-9.783-12.035-10.6c0,0,7.795,1.229,10.071,13.115
			c2.275,11.887,4.707,21.266,21.652,15.702c16.944-5.564,29.787-18.811,42.488-17.704s13.328,7.352,13.656,10.37
			C182.627,201.387,180.674,209.537,180.674,209.537z"/>
	</g>
	<g>
		<path style="fill:#B9483E;" d="M153.533,239.534c-4.285,4.286-22.855,11.429-29.283,12.142
			c-11.32,1.256-13.471-8.299-17.224-16.852c-4.251-9.687-5.638-14.336-15.113-10.247c-7.94,3.427-18.101,7.317-24.938-1.046
			c-3.557-4.35-3.358-10.005-1.639-15.547c0,0-3.052,13.032,8.541,16.068c11.594,3.036,14.922-11.634,26.557-6.07
			c11.633,5.563,10.561,28.577,22.044,29.843C133.961,249.09,153.533,239.534,153.533,239.534z"/>
	</g>
</g>
<g>
</g>
<g>
</g>
<g>
</g>
<g>
</g>
<g>
</g>
<g>
</g>
<g>
</g>
<g>
</g>
<g>
</g>
<g>
</g>
<g>
</g>
<g>
</g>
<g>
</g>
<g>
</g>
<g>
</g>
</svg>
