<?xml version="1.0" encoding="iso-8859-1"?>
<!-- Generator: Adobe Illustrator 19.0.0, SVG Export Plug-In . SVG Version: 6.00 Build 0)  -->
<svg version="1.1" id="Layer_1" xmlns="http://www.w3.org/2000/svg" xmlns:xlink="http://www.w3.org/1999/xlink" x="0px" y="0px"
	 viewBox="0 0 512 512" style="enable-background:new 0 0 512 512;" xml:space="preserve">
<g>
	<path style="fill:#DF584C;" d="M255.442,256.151L42.841,0.775L43.05,512l424.997-0.469L255.442,256.151z M113.034,181.679
		l223.281,268.206l-223.482,0.249L113.034,181.679z"/>
	<g>
		<g>
			
				<rect x="428.998" y="474.74" transform="matrix(-0.6397 -0.7686 0.7686 -0.6397 337.4506 1126.9757)" style="fill:#253744;" width="7.725" height="19.317"/>
		</g>
		<g>
			
				<rect x="411.53" y="456.575" transform="matrix(-0.6397 -0.7686 0.7686 -0.6397 319.5213 1090.6951)" style="fill:#253744;" width="7.725" height="27.77"/>
		</g>
		<g>
			
				<rect x="401.053" y="441.098" transform="matrix(-0.6399 -0.7685 0.7685 -0.6399 317.6136 1050.3596)" style="fill:#253744;" width="7.724" height="19.324"/>
		</g>
		<g>
			<polygon style="fill:#253744;" points="395.626,424.975 400.571,430.918 379.222,448.685 374.28,442.747 			"/>
		</g>
		<g>
			<polygon style="fill:#253744;" points="381.836,407.978 386.78,413.915 371.935,426.272 366.993,420.327 			"/>
		</g>
		<g>
			<polygon style="fill:#253744;" points="367.619,391.329 372.56,397.267 351.215,415.04 346.274,409.103 			"/>
		</g>
		<g>
			
				<rect x="345.023" y="373.798" transform="matrix(-0.6399 -0.7685 0.7685 -0.6399 277.4489 896.9378)" style="fill:#253744;" width="7.722" height="19.324"/>
		</g>
		<g>
			
				<rect x="327.508" y="355.647" transform="matrix(-0.6397 -0.7686 0.7686 -0.6397 259.3246 860.6209)" style="fill:#253744;" width="7.725" height="27.769"/>
		</g>
		<g>
			<polygon style="fill:#253744;" points="325.819,340.687 330.76,346.623 315.914,358.981 310.969,353.051 			"/>
		</g>
		<g>
			
				<rect x="299.54" y="322" transform="matrix(-0.64 -0.7684 0.7684 -0.64 239.4863 783.9825)" style="fill:#253744;" width="7.727" height="27.777"/>
		</g>
		<g>
			<polygon style="fill:#253744;" points="297.81,307.049 302.753,312.978 287.907,325.342 282.966,319.397 			"/>
		</g>
		<g>
			
				<rect x="271.546" y="288.392" transform="matrix(-0.6397 -0.7686 0.7686 -0.6397 219.2522 707.332)" style="fill:#253744;" width="7.723" height="27.774"/>
		</g>
		<g>
			<polygon style="fill:#253744;" points="269.802,273.395 274.743,279.332 259.897,291.697 254.956,285.76 			"/>
		</g>
		<g>
			
				<rect x="243.483" y="254.711" transform="matrix(-0.6397 -0.7686 0.7686 -0.6397 199.1266 630.538)" style="fill:#253744;" width="7.725" height="27.774"/>
		</g>
		<g>
			
				<rect x="233.007" y="239.258" transform="matrix(-0.6401 -0.7683 0.7683 -0.6401 197.241 590.2335)" style="fill:#253744;" width="7.719" height="19.321"/>
		</g>
		<g>
			
				<rect x="215.512" y="221.071" transform="matrix(-0.64 -0.7684 0.7684 -0.64 179.2339 553.8949)" style="fill:#253744;" width="7.727" height="27.777"/>
		</g>
		<g>
			<polygon style="fill:#253744;" points="213.781,206.112 218.724,212.05 203.88,224.413 198.938,218.469 			"/>
		</g>
		<g>
			<polygon style="fill:#253744;" points="199.564,189.47 204.507,195.399 183.161,213.182 178.22,207.244 			"/>
		</g>
		<g>
			
				<rect x="176.929" y="171.947" transform="matrix(-0.6397 -0.7686 0.7686 -0.6397 156.8622 436.7386)" style="fill:#253744;" width="7.725" height="19.316"/>
		</g>
		<g>
			
				<rect x="159.452" y="153.776" transform="matrix(-0.6397 -0.7686 0.7686 -0.6397 138.9211 400.4409)" style="fill:#253744;" width="7.723" height="27.769"/>
		</g>
		<g>
			
				<rect x="148.921" y="138.303" transform="matrix(-0.6397 -0.7686 0.7686 -0.6397 136.7946 360.0482)" style="fill:#253744;" width="7.725" height="19.32"/>
		</g>
		<g>
			<polygon style="fill:#253744;" points="143.544,122.179 148.485,128.124 127.141,145.891 122.198,139.953 			"/>
		</g>
		<g>
			<polygon style="fill:#253744;" points="129.755,105.184 134.695,111.121 119.853,123.477 114.907,117.533 			"/>
		</g>
		<g>
			
				<rect x="103.477" y="86.508" transform="matrix(-0.6396 -0.7687 0.7687 -0.6396 98.8184 247.1214)" style="fill:#253744;" width="7.724" height="27.776"/>
		</g>
		<g>
			<polygon style="fill:#253744;" points="101.748,71.53 106.688,77.467 91.843,89.832 86.901,83.895 			"/>
		</g>
		<g>
			
				<rect x="75.467" y="52.87" transform="matrix(-0.6396 -0.7687 0.7687 -0.6396 78.7531 170.4325)" style="fill:#253744;" width="7.724" height="27.771"/>
		</g>
		<g>
			<polygon style="fill:#253744;" points="73.737,37.893 78.679,43.829 63.833,56.186 58.891,50.256 			"/>
		</g>
	</g>
	<polygon style="fill:#B9483E;" points="336.315,449.885 322.81,433.664 130.856,433.432 130.056,202.129 113.034,181.679 
		112.833,450.134 	"/>
	<polygon style="fill:#B9483E;" points="468.047,511.531 469.159,492.756 58.933,0 42.841,0.775 	"/>
</g>
<g>
</g>
<g>
</g>
<g>
</g>
<g>
</g>
<g>
</g>
<g>
</g>
<g>
</g>
<g>
</g>
<g>
</g>
<g>
</g>
<g>
</g>
<g>
</g>
<g>
</g>
<g>
</g>
<g>
</g>
</svg>
